<?xml version="1.0" encoding="UTF-8" standalone="no"?>
<svg
   xmlns:dc="http://purl.org/dc/elements/1.1/"
   xmlns:cc="http://creativecommons.org/ns#"
   xmlns:rdf="http://www.w3.org/1999/02/22-rdf-syntax-ns#"
   xmlns:svg="http://www.w3.org/2000/svg"
   xmlns="http://www.w3.org/2000/svg"
   version="1.1"
   id="svg6540"
   viewBox="0 0 256 110"
   height="110"
   width="256">
  <defs
     id="defs6542" />
  <metadata
     id="metadata6545">
    <rdf:RDF>
      <cc:Work
         rdf:about="">
        <dc:format>image/svg+xml</dc:format>
        <dc:type
           rdf:resource="http://purl.org/dc/dcmitype/StillImage" />
        <dc:title></dc:title>
      </cc:Work>
    </rdf:RDF>
  </metadata>
  <g
     id="layer1"
     transform="translate(0,-942.36216)">
    <g
       transform="translate(-13.85714,150.85714)"
       id="g7093">
      <path
         d="M -8,-12 -8,9 M -8,-12 0,9 M 8,-12 0,9 M 8,-12 8,9"
         style="fill:none;stroke:#000000"
         transform="translate(12,0)"
         id="path7095" />
      <path
         d="M 0,-12 -8,9 M 0,-12 8,9 M -5,2 5,2"
         style="fill:none;stroke:#000000"
         transform="translate(33,0)"
         id="path7097" />
      <path
         d="M -7,-12 7,9 M 7,-12 -7,9"
         style="fill:none;stroke:#000000"
         transform="translate(52,0)"
         id="path7099" />
      <path
         d="M -10,-12 -5,9 M 0,-12 -5,9 M 0,-12 5,9 M 10,-12 5,9"
         style="fill:none;stroke:#000000"
         transform="translate(74,0)"
         id="path7101" />
      <path
         d="m -6,-12 0,21 m 0,-21 13,0 M -6,-2 2,-2 M -6,9 7,9"
         style="fill:none;stroke:#000000"
         transform="translate(96,0)"
         id="path7103" />
      <path
         d="M -6,-12 -6,9 M -6,9 6,9"
         style="fill:none;stroke:#000000"
         transform="translate(115,0)"
         id="path7105" />
      <path
         d="M -6,-12 -6,9 M -6,9 6,9"
         style="fill:none;stroke:#000000"
         transform="translate(132,0)"
         id="path7107" />
      <path
         d=""
         style="fill:none;stroke:#000000"
         transform="translate(147,0)"
         id="path7109" />
      <path
         d="m -7,-12 0,21 m 0,-21 9,0 3,1 1,1 1,2 0,3 -1,2 -1,1 -3,1 -9,0"
         style="fill:none;stroke:#000000"
         transform="translate(166,0)"
         id="path7111" />
      <path
         d="m -2,-12 -2,1 -2,2 -1,2 -1,3 0,5 1,3 1,2 2,2 2,1 L 2,9 4,8 6,6 7,4 8,1 8,-4 7,-7 6,-9 l -2,-2 -2,-1 -4,0"
         style="fill:none;stroke:#000000"
         transform="translate(187,0)"
         id="path7113" />
      <path
         d="M -6,-12 -6,9 M -6,9 6,9"
         style="fill:none;stroke:#000000"
         transform="translate(208,0)"
         id="path7115" />
      <path
         d="M -6,-12 -6,9 M -6,9 6,9"
         style="fill:none;stroke:#000000"
         transform="translate(225,0)"
         id="path7117" />
      <path
         d="M 0,-12 -8,9 M 0,-12 8,9 M -5,2 5,2"
         style="fill:none;stroke:#000000"
         transform="translate(241,0)"
         id="path7119" />
      <path
         d="m 8,-7 -1,-2 -2,-2 -2,-1 -4,0 -2,1 -2,2 -1,2 -1,3 0,5 1,3 1,2 2,2 2,1 L 3,9 5,8 7,6 8,4"
         style="fill:none;stroke:#000000"
         transform="translate(260,0)"
         id="path7121" />
      <path
         d="M -7,-12 -7,9 M 7,-12 -7,2 m 5,-5 9,12"
         style="fill:none;stroke:#000000"
         transform="translate(282,0)"
         id="path7123" />
    </g>
  </g>
  <g
     id="layer3"
     transform="translate(0,-18)">
    <path
       d=""
       style="fill:none;stroke:#000000"
       id="path7183" />
    <g
       id="g7250"
       transform="matrix(1.8954874,0,0,1.9344519,19.681912,-243.36993)"
       style="fill:none;stroke:#ffffff;stroke-width:1.04445708;stroke-linecap:round;stroke-linejoin:round;stroke-miterlimit:4;stroke-dasharray:none;stroke-opacity:1">
      <path
         id="path7169"
         style="fill:none;stroke:#ffffff;stroke-width:1.04445708;stroke-linecap:round;stroke-linejoin:round;stroke-miterlimit:4;stroke-dasharray:none;stroke-opacity:1"
         d="m -9.85714,138.85714 0,21 m 0,-21 8,21 m 8,-21 -8,21 m 8,-21 0,21" />
      <path
         id="path7171"
         style="fill:none;stroke:#ffffff;stroke-width:1.04445708;stroke-linecap:round;stroke-linejoin:round;stroke-miterlimit:4;stroke-dasharray:none;stroke-opacity:1"
         d="m 19.30729,138.85714 -8,21 m 8,-21 8,21 m -13,-7 10,0" />
      <path
         id="path7173"
         style="fill:none;stroke:#ffffff;stroke-width:1.04445708;stroke-linecap:round;stroke-linejoin:round;stroke-miterlimit:4;stroke-dasharray:none;stroke-opacity:1"
         d="m 32.472517,138.85714 14,21 m 0,-21 -14,21" />
      <path
         id="path7175"
         style="fill:none;stroke:#ffffff;stroke-width:1.04445708;stroke-linecap:round;stroke-linejoin:round;stroke-miterlimit:4;stroke-dasharray:none;stroke-opacity:1"
         d="m 51.637244,138.85714 5,21 m 5,-21 -5,21 m 5,-21 5,21 m 5,-21 -5,21" />
      <path
         id="path7177"
         style="fill:none;stroke:#ffffff;stroke-width:1.04445708;stroke-linecap:round;stroke-linejoin:round;stroke-miterlimit:4;stroke-dasharray:none;stroke-opacity:1"
         d="m 76.803747,138.85714 0,21 m 0,-21 13,0 m -13,10 8,0 m -8,11 13,0" />
      <path
         id="path7179"
         style="fill:none;stroke:#ffffff;stroke-width:1.04445708;stroke-linecap:round;stroke-linejoin:round;stroke-miterlimit:4;stroke-dasharray:none;stroke-opacity:1"
         d="m 94.97331,138.85714 0,21 m 0,0 12,0" />
      <path
         id="path7181"
         style="fill:none;stroke:#ffffff;stroke-width:1.04445708;stroke-linecap:round;stroke-linejoin:round;stroke-miterlimit:4;stroke-dasharray:none;stroke-opacity:1"
         d="m 112.14287,138.85714 0,21 m 0,0 12,0" />
    </g>
    <g
       id="g7259"
       transform="matrix(1.8954874,0,0,1.9344519,-284.90032,-188.47847)"
       style="fill:none;stroke:#ffffff;stroke-width:1.04445708;stroke-linecap:round;stroke-linejoin:round;stroke-miterlimit:4;stroke-dasharray:none;stroke-opacity:1">
      <path
         id="path7185"
         style="fill:none;stroke:#ffffff;stroke-width:1.04445708;stroke-linecap:round;stroke-linejoin:round;stroke-miterlimit:4;stroke-dasharray:none;stroke-opacity:1"
         d="m 150.83511,138.85714 0,21 m 0,-21 9,0 3,1 1,1 1,2 0,3 -1,2 -1,1 -3,1 -9,0" />
      <path
         id="path7187"
         style="fill:none;stroke:#ffffff;stroke-width:1.04445708;stroke-linecap:round;stroke-linejoin:round;stroke-miterlimit:4;stroke-dasharray:none;stroke-opacity:1"
         d="m 176.66427,138.85714 -2,1 -2,2 -1,2 -1,3 0,5 1,3 1,2 2,2 2,1 4,0 2,-1 2,-2 1,-2 1,-3 0,-5 -1,-3 -1,-2 -2,-2 -2,-1 -4,0" />
      <path
         id="path7189"
         style="fill:none;stroke:#ffffff;stroke-width:1.04445708;stroke-linecap:round;stroke-linejoin:round;stroke-miterlimit:4;stroke-dasharray:none;stroke-opacity:1"
         d="m 192.49745,138.85714 0,21 m 0,0 12,0" />
      <path
         id="path7191"
         style="fill:none;stroke:#ffffff;stroke-width:1.04445708;stroke-linecap:round;stroke-linejoin:round;stroke-miterlimit:4;stroke-dasharray:none;stroke-opacity:1"
         d="m 210.33464,138.85714 0,21 m 0,0 12,0" />
      <path
         id="path7193"
         style="fill:none;stroke:#ffffff;stroke-width:1.04445708;stroke-linecap:round;stroke-linejoin:round;stroke-miterlimit:4;stroke-dasharray:none;stroke-opacity:1"
         d="m 236.16927,138.85714 -8,21 m 8,-21 8,21 m -13,-7 10,0" />
      <path
         id="path7195"
         style="fill:none;stroke:#ffffff;stroke-width:1.04445708;stroke-linecap:round;stroke-linejoin:round;stroke-miterlimit:4;stroke-dasharray:none;stroke-opacity:1"
         d="m 264.99987,143.85714 -1,-2 -2,-2 -2,-1 -4,0 -2,1 -2,2 -1,2 -1,3 0,5 1,3 1,2 2,2 2,1 4,0 2,-1 2,-2 1,-2" />
      <path
         id="path7197"
         style="fill:none;stroke:#ffffff;stroke-width:1.04445708;stroke-linecap:round;stroke-linejoin:round;stroke-miterlimit:4;stroke-dasharray:none;stroke-opacity:1"
         d="m 270.8337,138.85714 0,21 m 14,-21 -14,14 m 5,-5 9,12" />
    </g>
  </g>
</svg>
